<svg class="icon" style="width: 1em;height: 1em;vertical-align: middle;fill: currentColor;overflow: hidden;" viewBox="0 0 1024 1024" version="1.1" xmlns="http://www.w3.org/2000/svg" p-id="24837"><path d="M945.096952 511.997953c0 0.932232-0.212848 1.804089-0.274246 2.721994l0 9.524934c0.082888-2.886747-0.020466-5.794983-0.082888-8.698103-1.828648 21.087271-19.324114 37.693484-40.885176 37.693484L285.223067 553.240263c-22.775726 0-41.24231-18.466584-41.24231-41.24231s18.466584-41.240263 41.24231-41.240263l574.047148 0c-2.216481-19.070334-5.833869-38.195927-11.422144-57.245795-54.393841-185.449689-248.826112-291.691385-434.277848-237.296521-185.449689 54.393841-291.691385 248.828159-237.296521 434.277848 54.395888 185.451736 248.828159 291.693432 434.275801 237.296521 94.669126-27.76639 168.496575-92.12621 211.05281-173.054381l0.286526 0.150426c3.276626-7.489578 8.749268-14.103206 16.259312-18.680455 19.454074-11.846816 44.827975-5.683443 56.676837 13.768585 8.345062 13.699 7.597025 30.253024-0.274246 43.034119l0.593518 0.311085c-52.656267 100.177584-144.030347 179.849134-261.205047 214.21585-229.493811 67.313082-470.102774-64.154135-537.417903-293.649993-67.313082-229.493811 64.160275-470.104821 293.656133-537.419949 229.491765-67.313082 470.102774 64.162322 537.415856 293.654087 11.357675 38.723953 16.47216 77.691453 16.925485 116.154463C944.785867 508.159532 945.096952 510.036275 945.096952 511.997953z" fill="#FF6CAF" p-id="24838"></path></svg>